<svg id="Слой_1" data-name="Слой 1" xmlns="http://www.w3.org/2000/svg" xmlns:xlink="http://www.w3.org/1999/xlink" viewBox="0 0 1080 1920"><defs><style>.cls-1{fill:#6a4a19;}.cls-2{fill:#c2b892;}.cls-3{fill:url(#Безымянный_градиент_35);}.cls-4{fill:url(#Безымянный_градиент_35-2);}</style><linearGradient id="Безымянный_градиент_35" x1="540" y1="960" x2="540" gradientUnits="userSpaceOnUse"><stop offset="0" stop-color="#513317" stop-opacity="0.52"/><stop offset="0.15" stop-color="#32200e" stop-opacity="0.7"/><stop offset="0.36" stop-color="#160e06" stop-opacity="0.87"/><stop offset="0.61" stop-color="#050301" stop-opacity="0.97"/><stop offset="1"/></linearGradient><linearGradient id="Безымянный_градиент_35-2" x1="540" y1="902.13" x2="540" y2="-57.87" gradientTransform="matrix(1, 0, 0, -1, 0, 1862.13)" xlink:href="#Безымянный_градиент_35"/></defs><rect class="cls-1" y="1792" width="135" height="128"/><rect class="cls-1" x="270" y="1792" width="135" height="128"/><rect class="cls-1" x="540" y="1792" width="135" height="128"/><rect class="cls-1" x="810" y="1792" width="135" height="128"/><rect class="cls-1" x="945" y="1664" width="135" height="128"/><rect class="cls-1" x="675" y="1664" width="135" height="128"/><rect class="cls-1" x="405" y="1664" width="135" height="128"/><rect class="cls-1" x="135" y="1664" width="135" height="128"/><rect class="cls-1" y="1536" width="135" height="128"/><rect class="cls-1" x="270" y="1536" width="135" height="128"/><rect class="cls-1" x="540" y="1536" width="135" height="128"/><rect class="cls-1" x="810" y="1536" width="135" height="128"/><rect class="cls-1" x="945" y="1408" width="135" height="128"/><rect class="cls-1" x="675" y="1408" width="135" height="128"/><rect class="cls-1" x="405" y="1408" width="135" height="128"/><rect class="cls-1" x="135" y="1408" width="135" height="128"/><rect class="cls-1" y="1280" width="135" height="128"/><rect class="cls-1" x="270" y="1280" width="135" height="128"/><rect class="cls-1" x="540" y="1280" width="135" height="128"/><rect class="cls-1" x="810" y="1280" width="135" height="128"/><rect class="cls-1" x="945" y="1152" width="135" height="128"/><rect class="cls-1" x="675" y="1152" width="135" height="128"/><rect class="cls-1" x="405" y="1152" width="135" height="128"/><rect class="cls-1" x="135" y="1152" width="135" height="128"/><rect class="cls-1" y="1024" width="135" height="128"/><rect class="cls-1" x="270" y="1024" width="135" height="128"/><rect class="cls-1" x="540" y="1024" width="135" height="128"/><rect class="cls-1" x="810" y="1024" width="135" height="128"/><rect class="cls-1" x="945" y="896" width="135" height="128"/><rect class="cls-1" x="675" y="896" width="135" height="128"/><rect class="cls-1" x="405" y="896" width="135" height="128"/><rect class="cls-1" x="135" y="896" width="135" height="128"/><rect class="cls-1" y="768" width="135" height="128"/><rect class="cls-1" x="270" y="768" width="135" height="128"/><rect class="cls-1" x="540" y="768" width="135" height="128"/><rect class="cls-1" x="810" y="768" width="135" height="128"/><rect class="cls-1" x="945" y="640" width="135" height="128"/><rect class="cls-1" x="675" y="640" width="135" height="128"/><rect class="cls-1" x="405" y="640" width="135" height="128"/><rect class="cls-1" x="135" y="640" width="135" height="128"/><rect class="cls-1" y="512" width="135" height="128"/><rect class="cls-1" x="270" y="512" width="135" height="128"/><rect class="cls-1" x="540" y="512" width="135" height="128"/><rect class="cls-1" x="810" y="512" width="135" height="128"/><rect class="cls-1" x="945" y="384" width="135" height="128"/><rect class="cls-1" x="675" y="384" width="135" height="128"/><rect class="cls-1" x="405" y="384" width="135" height="128"/><rect class="cls-1" x="135" y="384" width="135" height="128"/><rect class="cls-1" y="256" width="135" height="128"/><rect class="cls-1" x="270" y="256" width="135" height="128"/><rect class="cls-1" x="540" y="256" width="135" height="128"/><rect class="cls-1" x="810" y="256" width="135" height="128"/><rect class="cls-1" x="945" y="128" width="135" height="128"/><rect class="cls-1" x="675" y="128" width="135" height="128"/><rect class="cls-1" x="405" y="128" width="135" height="128"/><rect class="cls-1" x="135" y="128" width="135" height="128"/><rect class="cls-1" width="135" height="128"/><rect class="cls-1" x="270" width="135" height="128"/><rect class="cls-1" x="540" width="135" height="128"/><rect class="cls-1" x="810" width="135" height="128"/><rect class="cls-2" x="135" y="1792" width="135" height="128"/><rect class="cls-2" x="405" y="1792" width="135" height="128"/><rect class="cls-2" x="675" y="1792" width="135" height="128"/><rect class="cls-2" x="945" y="1792" width="135" height="128"/><rect class="cls-2" x="810" y="1664" width="135" height="128"/><rect class="cls-2" x="540" y="1664" width="135" height="128"/><rect class="cls-2" x="270" y="1664" width="135" height="128"/><rect class="cls-2" y="1664" width="135" height="128"/><rect class="cls-2" x="135" y="1536" width="135" height="128"/><rect class="cls-2" x="405" y="1536" width="135" height="128"/><rect class="cls-2" x="675" y="1536" width="135" height="128"/><rect class="cls-2" x="945" y="1536" width="135" height="128"/><rect class="cls-2" x="810" y="1408" width="135" height="128"/><rect class="cls-2" x="540" y="1408" width="135" height="128"/><rect class="cls-2" x="270" y="1408" width="135" height="128"/><rect class="cls-2" y="1408" width="135" height="128"/><rect class="cls-2" x="135" y="1280" width="135" height="128"/><rect class="cls-2" x="405" y="1280" width="135" height="128"/><rect class="cls-2" x="675" y="1280" width="135" height="128"/><rect class="cls-2" x="945" y="1280" width="135" height="128"/><rect class="cls-2" x="810" y="1152" width="135" height="128"/><rect class="cls-2" x="540" y="1152" width="135" height="128"/><rect class="cls-2" x="270" y="1152" width="135" height="128"/><rect class="cls-2" y="1152" width="135" height="128"/><rect class="cls-2" x="135" y="1024" width="135" height="128"/><rect class="cls-2" x="405" y="1024" width="135" height="128"/><rect class="cls-2" x="675" y="1024" width="135" height="128"/><rect class="cls-2" x="945" y="1024" width="135" height="128"/><rect class="cls-2" x="810" y="896" width="135" height="128"/><rect class="cls-2" x="540" y="896" width="135" height="128"/><rect class="cls-2" x="270" y="896" width="135" height="128"/><rect class="cls-2" y="896" width="135" height="128"/><rect class="cls-2" x="135" y="768" width="135" height="128"/><rect class="cls-2" x="405" y="768" width="135" height="128"/><rect class="cls-2" x="675" y="768" width="135" height="128"/><rect class="cls-2" x="945" y="768" width="135" height="128"/><rect class="cls-2" x="810" y="640" width="135" height="128"/><rect class="cls-2" x="540" y="640" width="135" height="128"/><rect class="cls-2" x="270" y="640" width="135" height="128"/><rect class="cls-2" y="640" width="135" height="128"/><rect class="cls-2" x="135" y="512" width="135" height="128"/><rect class="cls-2" x="405" y="512" width="135" height="128"/><rect class="cls-2" x="675" y="512" width="135" height="128"/><rect class="cls-2" x="945" y="512" width="135" height="128"/><rect class="cls-2" x="810" y="384" width="135" height="128"/><rect class="cls-2" x="540" y="384" width="135" height="128"/><rect class="cls-2" x="270" y="384" width="135" height="128"/><rect class="cls-2" y="384" width="135" height="128"/><rect class="cls-2" x="135" y="256" width="135" height="128"/><rect class="cls-2" x="405" y="256" width="135" height="128"/><rect class="cls-2" x="675" y="256" width="135" height="128"/><rect class="cls-2" x="945" y="256" width="135" height="128"/><rect class="cls-2" x="810" y="128" width="135" height="128"/><rect class="cls-2" x="540" y="128" width="135" height="128"/><rect class="cls-2" x="270" y="128" width="135" height="128"/><rect class="cls-2" y="128" width="135" height="128"/><rect class="cls-2" x="135" width="135" height="128"/><rect class="cls-2" x="405" width="135" height="128"/><rect class="cls-2" x="675" width="135" height="128"/><rect class="cls-2" x="945" width="135" height="128"/><rect class="cls-3" width="1080" height="960"/><rect class="cls-4" y="960" width="1080" height="960"/></svg>