<?xml version="1.0" encoding="utf-8"?>
<!-- Generator: Adobe Illustrator 26.0.2, SVG Export Plug-In . SVG Version: 6.00 Build 0)  -->
<svg version="1.1" id="Слой_1" xmlns="http://www.w3.org/2000/svg" xmlns:xlink="http://www.w3.org/1999/xlink" x="0px" y="0px"
	 viewBox="0 0 100 100" style="enable-background:new 0 0 100 100;" xml:space="preserve">
<style type="text/css">
	.st0{fill:#1D1D1B;}
	.st1{fill:#FFFFFF;}
</style>
<circle class="st0" cx="50" cy="50" r="50"/>
<g id="Коняра">
	<path class="st1" d="M56.7,10c1.6,1.2,1.9,2.1,1.2,3.8c-0.2,0.5-0.1,0.8,0.3,1.1c1.3,0.8,2.1,2,2.7,3.4c1.7,3.8,4.2,6.8,7.6,9.3
		c2.1,1.5,2.4,2.6,1.3,4.9c-0.5,1.1-1.2,2.1-1.9,3c-1.1,1.5-1.1,1.5-2.5,0.3c-1.2-0.9-2.5-1.7-4.1-1.7c-1.2,0-2.5,0.2-3.7,0.3
		c-0.4,0-0.8,0.2-1.2,0.3c-3.2,0.7-5.2-0.6-5.6-3.9c0-0.2,0-0.3,0-0.5c-0.2-0.3-0.5-0.6-0.7-0.9c-0.3,0.3-0.7,0.6-0.7,0.9
		c0.1,1.6,0.1,3.2,0.4,4.7c1.4,6.3,4.9,11.4,9.4,15.9c0.2,0.2,0.4,0.5,0.7,0.6c1.4,0.9,1.6,2.1,1.4,3.6c-0.5,2.8-0.8,5.7-1.1,8.6
		c-0.1,0.6-0.3,0.7-0.8,0.7c-8.1,0-16.2,0-24.2,0c-0.4,0-0.9-0.4-1.1-0.7c-1.4-2.4-2.2-5-2.7-7.7c-1.9-9.2-2.1-18.5,0.1-27.7
		c0.9-3.9,2.3-7.6,5-10.6c4.6-5.2,10.5-6.8,17.2-5.8c0.7,0.1,1.1,0,1.6-0.5C55.5,10.9,56.1,10.5,56.7,10z"/>
	<path class="st1" d="M46.9,85.6c-4.7,0-9.4,0-14.1,0c-0.7,0-1.1-0.2-1.5-0.8c-1.8-3.5-2.3-7.2-0.6-10.9c0.7-1.6,1.6-3.1,2.6-4.6
		c0.2-0.3,0.7-0.5,1.1-0.5c6,0,11.9,0,17.9,0c2.5,0,5,0,7.5,0c0.3,0,0.8,0.2,1,0.4c1.9,3.1,3.4,6.3,3.3,10c0,2-0.6,3.9-1.6,5.6
		c-0.3,0.6-0.7,0.8-1.4,0.8C56.3,85.6,51.6,85.6,46.9,85.6z"/>
	<path class="st1" d="M63.5,90c-11.1,0-22.2,0-33.5,0c0.2-0.9,0.2-1.7,0.5-2.4c0.4-0.9,1-1.4,2.1-1.4c9.2,0,18.4,0,27.6,0
		C62.7,86.3,63.7,87.3,63.5,90z"/>
	<path class="st1" d="M47.2,68.2c-4.3,0-8.5,0-12.8,0c-1.2,0-1.9-0.5-1.9-1.4c0-1,0.8-1.7,2-1.7c4.7,0,9.5,0,14.2,0
		c3.6,0,7.3,0,10.9,0c0.8,0,1.5,0.2,1.9,1c0.5,1.1-0.3,2.1-1.4,2.1C55.8,68.2,51.5,68.2,47.2,68.2z"/>
</g>
</svg>
