<?xml version="1.0" encoding="utf-8"?>
<!-- Generator: Adobe Illustrator 26.0.2, SVG Export Plug-In . SVG Version: 6.00 Build 0)  -->
<svg version="1.1" id="Слой_1" xmlns="http://www.w3.org/2000/svg" xmlns:xlink="http://www.w3.org/1999/xlink" x="0px" y="0px"
	 viewBox="0 0 100 100" style="enable-background:new 0 0 100 100;" xml:space="preserve">
<path d="M45.6,23c2.3,0.3,4.5,0.6,6.7,1c11.6,2.1,22.3,6.1,31.4,13.8c8.4,7.1,13.4,16.2,15.4,26.9c1.4,7.8,1.1,15.5-0.1,23.2
	c-0.2,1.2-0.4,2.4-0.6,3.6c-0.1,0.4-0.2,0.8-0.3,1.2c-0.5,1.1-1.3,1.1-1.9,0.1c-0.2-0.3-0.3-0.6-0.4-1c-3.2-8.4-7.6-16.1-13.9-22.6
	c-5-5.2-10.8-9.1-17.9-10.7c-6-1.4-11.8-0.9-17.6,0.8c-0.6,0.2-0.5,0.5-0.5,0.9c0,4.1,0.1,8.2,0,12.3c0,1.1-0.3,2.2-0.7,3.2
	c-0.7,1.8-2.2,2.4-4,1.7c-1.1-0.5-2.3-1.1-3.2-1.9C26.7,66.2,15.6,56.6,4.5,47c-0.6-0.6-1.4-1-2-1.6c-0.6-0.5-1.2-1-1.6-1.6
	c-1.1-1.5-1.2-3.1-0.1-4.6c0.5-0.7,1.1-1.4,1.8-2C14.3,27.1,26.1,17,37.9,6.9c1.1-0.9,2.2-1.7,3.6-2c1.4-0.3,2.7,0.2,3.3,1.5
	c0.4,0.8,0.7,1.8,0.7,2.7c0.1,4.3,0.1,8.6,0.1,13C45.6,22.4,45.6,22.7,45.6,23z"/>
</svg>
