<?xml version="1.0" encoding="utf-8"?>
<!-- Generator: Adobe Illustrator 26.0.2, SVG Export Plug-In . SVG Version: 6.00 Build 0)  -->
<svg version="1.1" id="Слой_1" xmlns="http://www.w3.org/2000/svg" xmlns:xlink="http://www.w3.org/1999/xlink" x="0px" y="0px"
	 viewBox="0 0 100 100" style="enable-background:new 0 0 100 100;" xml:space="preserve">
<g>
	<path d="M95.5,100c-3.1,0-6,0-9,0c-0.3-11.5-4.7-21-13.6-28.3c-6.9-5.6-14.9-8.2-23.7-8c-9.8,0.3-18.3,3.9-25.1,10.9
		c-6.8,7-10.2,15.5-10.4,25.4c-3,0-6,0-9.1,0c0.2-12.1,4.3-22.6,12.7-31.3c8.3-8.7,18.6-13.3,30.6-14.1c-15-1.3-25.6-14.1-25.1-28.2
		C23.2,12,35-0.1,50.2,0c13.9,0.1,25.4,10.5,26.9,24.4c1.7,15-9.5,28.9-24.9,30.1C67.8,55.8,80,62.8,88.5,76
		C93.2,83.2,95.5,91.3,95.5,100z M68.2,27.3c0.1-9.9-8-18.3-18.4-18.2c-9.9,0.1-18,8.2-18,18.3c0.1,9.9,7.9,18.2,18.5,18
		C60.7,45.3,68.2,36.9,68.2,27.3z"/>
</g>
</svg>
