<svg id="Слой_1" data-name="Слой 1" xmlns="http://www.w3.org/2000/svg" viewBox="0 0 100 100"><path d="M0,49c.94-1.76,2.44-2.24,4.38-2.18,3.64.11,7.29,0,10.93,0a3.16,3.16,0,0,1,3.45,3.37,31.09,31.09,0,0,0,24.9,30.29,30.37,30.37,0,0,0,25.41-5.82c.21-.16.38-.35.77-.71-1-.88-1.89-1.72-2.79-2.59-1.22-1.18-2.4-2.39-3.6-3.59a3.1,3.1,0,0,1,2.18-5.32q12.5,0,25,0a3.08,3.08,0,0,1,3.1,3.31c0,3.15,0,6.31,0,9.46,0,5,0,10,0,15a3.12,3.12,0,0,1-4.47,3,4.36,4.36,0,0,1-1.15-.9l-5.05-5.07a55.62,55.62,0,0,1-6.54,4.89,49.64,49.64,0,0,1-19.32,7.13,47.64,47.64,0,0,1-12.16.32A49.15,49.15,0,0,1,19.66,89.67,49.42,49.42,0,0,1,.85,59.24C.54,57.68,0,54.27,0,53.9Z" transform="translate(0 0)"/><path d="M100,51c-.94,1.76-2.44,2.24-4.38,2.18-3.64-.11-7.29,0-10.93,0a3.16,3.16,0,0,1-3.45-3.37,31.09,31.09,0,0,0-24.9-30.29,30.37,30.37,0,0,0-25.41,5.82c-.21.16-.38.35-.77.71,1,.88,1.89,1.72,2.79,2.59,1.22,1.18,2.4,2.39,3.6,3.59a3.1,3.1,0,0,1-2.18,5.32q-12.49,0-25,0a3.08,3.08,0,0,1-3.1-3.31c0-3.15,0-6.31,0-9.46,0-5,0-10,0-15a3.12,3.12,0,0,1,4.47-3,4.36,4.36,0,0,1,1.15.9l5,5.07A55.62,55.62,0,0,1,23.47,7.7,49.64,49.64,0,0,1,42.79.57,47.64,47.64,0,0,1,55,.25,49.15,49.15,0,0,1,80.34,10.33,49.42,49.42,0,0,1,99.15,40.76c.31,1.56.85,5,.85,5.34Z" transform="translate(0 0)"/></svg>