<svg id="Слой_1" data-name="Слой 1" xmlns="http://www.w3.org/2000/svg" viewBox="0 0 100 100"><path d="M99.83,45.61a6.65,6.65,0,0,0-6.64-6c-1,0-2.08,0-3.12,0a6.06,6.06,0,0,1-5.7-3.76,5.83,5.83,0,0,1,1.42-6.42c.76-.77,1.53-1.53,2.3-2.29,3-2.95,3-6.68.1-9.63-1.75-1.77-3.53-3.51-5.3-5.26a6.77,6.77,0,0,0-9.35-.28c-1,.9-1.82,1.88-2.8,2.75A5.76,5.76,0,0,1,64.55,16a6.27,6.27,0,0,1-4.09-5,40.46,40.46,0,0,1-.08-4.68A6.31,6.31,0,0,0,53.91,0H46.37a6.55,6.55,0,0,0-6.55,6.4c0,1.37,0,2.75,0,4.11A5.73,5.73,0,0,1,36,15.9a5.56,5.56,0,0,1-6.34-1.17c-1-.91-1.88-1.92-2.88-2.82a6.75,6.75,0,0,0-9.14.21c-1.89,1.8-3.75,3.64-5.57,5.5A6.7,6.7,0,0,0,12.24,27c.88.88,1.81,1.71,2.64,2.64a5.92,5.92,0,0,1,.18,7.77c-2.33,2.65-5.48,2.07-8.44,2.13A6.86,6.86,0,0,0,0,46.47v7.28a6.48,6.48,0,0,0,5,6.39,29.41,29.41,0,0,0,5.24.27,6.22,6.22,0,0,1,5.33,3,5.74,5.74,0,0,1-1,7.31c-.75.77-1.55,1.49-2.3,2.25a6.87,6.87,0,0,0,0,9.67c1.75,1.75,3.54,3.48,5.31,5.22a6.83,6.83,0,0,0,9.57,0l2.31-2.29a5.71,5.71,0,0,1,7.31-1,6.23,6.23,0,0,1,3,5.29c0,1.29,0,2.58,0,3.88A6.41,6.41,0,0,0,46.23,100H54a6.16,6.16,0,0,0,6.33-5,27.79,27.79,0,0,0,.26-5.17A5.85,5.85,0,0,1,64.71,84a5.58,5.58,0,0,1,5.6,1c1.28,1.1,2.41,2.37,3.67,3.48a6.18,6.18,0,0,0,8.29-.11q3.28-3,6.36-6.31a6.27,6.27,0,0,0-.27-8.87c-.86-.86-1.71-1.73-2.58-2.58a5.65,5.65,0,0,1-1.48-6.19,5.5,5.5,0,0,1,4.75-4,24.61,24.61,0,0,1,4.54-.17,5.75,5.75,0,0,0,6.21-5.32A58.55,58.55,0,0,0,99.83,45.61ZM50,75.21A25.21,25.21,0,1,1,75.19,50,25.2,25.2,0,0,1,50,75.21Z" transform="translate(0 0)"/></svg>