<svg id="Слой_1" data-name="Слой 1" xmlns="http://www.w3.org/2000/svg" viewBox="0 0 99.95 100"><path d="M100,96.84a3.3,3.3,0,0,1-1.91,2.73,3.41,3.41,0,0,1-3.78-.31,8.48,8.48,0,0,1-1-.92Q47.44,52.47,1.57,6.61C.41,5.45-.32,4.22.19,2.54A3.54,3.54,0,0,1,5.78.76a8.39,8.39,0,0,1,.81.77L98.4,93.34A4.35,4.35,0,0,1,100,96.84Z" transform="translate(-0.03 0)"/><path d="M11.64,27l5.29,5.29c-2.19.73-2.67,2.44-2.66,4.61.07,8.89,0,17.78,0,26.67,0,3,1.32,4.26,4.31,4.26,5.54,0,11.08,0,16.62,0a4.47,4.47,0,0,1,3.38,1.4Q48.26,78.93,58,88.56a2.66,2.66,0,0,0,1.61.68c1.52.1,3,0,4.69,0V79.36A64.29,64.29,0,0,0,69,84a6.08,6.08,0,0,1,2.49,6.07,19.79,19.79,0,0,0,0,2.67,3.54,3.54,0,0,1-3.58,3.64c-3.57,0-7.14,0-10.71,0a3.92,3.92,0,0,1-2.83-1.35c-6.4-6.43-12.83-12.83-19.23-19.27A2.43,2.43,0,0,0,33.14,75c-4.95,0-9.89,0-14.84,0A10.71,10.71,0,0,1,7.16,63.91q0-14.05,0-28.12A10.45,10.45,0,0,1,11.64,27Z" transform="translate(-0.03 0)"/><path d="M71.38,56.28C69,53.87,66.8,51.7,64.67,49.47a2.21,2.21,0,0,1-.37-1.42q0-17.91,0-35.82V10.72c-1.84,0-3.64,0-5.44,0-.33,0-.67.42-1,.7q-7.35,7.32-14.68,14.67a9.65,9.65,0,0,0-.7.84l-5.09-5.09c.09-.1.32-.37.58-.63,5.36-5.36,10.74-10.71,16.07-16.11A5,5,0,0,1,58,3.55c3.2.07,6.4,0,9.6,0a3.57,3.57,0,0,1,3.87,3.8q0,24,0,48C71.43,55.56,71.4,55.77,71.38,56.28Z" transform="translate(-0.03 0)"/></svg>