<svg id="Слой_1" data-name="Слой 1" xmlns="http://www.w3.org/2000/svg" viewBox="0 0 86.82 102"><defs><style>.cls-1{fill:none;stroke:#000;stroke-miterlimit:10;stroke-width:2px;}</style></defs><path class="cls-1" d="M92.41,50.15V98.26A1.75,1.75,0,0,1,90.62,100c-3,0-6.72-.15-8.65-.17a1.77,1.77,0,0,1-.9-.25c-13.46-8.12-27-16.19-40.39-24.35a10.68,10.68,0,0,0-5.78-1.55c-6,.1-12.08,0-18.13,0a9.21,9.21,0,0,1-9.18-9.2V35.61a9.21,9.21,0,0,1,9.2-9.19c6.51,0,13,0,19.52-.05a6.61,6.61,0,0,0,3.33-.94C53.48,17.18,67.56,8.59,81.36.26a1.86,1.86,0,0,1,1-.26c2.17,0,3.46,0,8.3,0a1.78,1.78,0,0,1,1.8,1.77V50.15ZM36.19,26.38V73.72" transform="translate(-6.59 1)"/></svg>