<svg id="Слой_1" data-name="Слой 1" xmlns="http://www.w3.org/2000/svg" viewBox="0 0 98.87 100"><path d="M27.34,0c.33.8.69,1.6,1,2.42.45,1.35.87,2.72,1.26,4.09a.88.88,0,0,0,.94.77,11.5,11.5,0,0,1,1.74.22,8.46,8.46,0,0,1,4.06,1.73c1.35,1.07,2.8,2,4.21,3,1.07.77,1.1,1,.28,2-.24.3-.47.61-.75,1l.93.6c3,1.87,6,3.73,8.92,5.61.32.2.74.45.84.76.46,1.42.84,2.87,1.18,4.32a1.46,1.46,0,0,1-.36,1,37.78,37.78,0,0,1-2.45,3.28,4.92,4.92,0,0,1-1.63.93,5,5,0,0,1-5.22-.48A7.48,7.48,0,0,0,36.13,30,9.63,9.63,0,0,1,29,28.78a3.69,3.69,0,0,0,1.52,3.49,55.5,55.5,0,0,0,4.7,3.28,19.48,19.48,0,0,0,2.94,1.52c3.87,1.61,6.18,4.68,7.75,8.37.9,2.14,1.56,4.39,2.36,6.68l1.67-.42A3.13,3.13,0,0,1,53.59,53a3.06,3.06,0,0,1-.41,3.85l-.23.3c3.45,2.14,3.78,5.61,2.2,8.24l.58.26a3,3,0,0,1,2.08,3.08,3,3,0,0,1-2.3,2.82c-2.91.81-5.83,1.57-8.75,2.34Q34.13,77.2,21.51,80.55a5.49,5.49,0,0,1-2.3.22,3,3,0,0,1-1.85-4.7c.16-.24.35-.46.58-.75a6.08,6.08,0,0,1-2.9-3.6,5.83,5.83,0,0,1,.73-4.64c-1.7-.52-2.8-1.55-2.67-3.38.18-2.32,2-2.8,4-3.21-.83-1.26-1.53-2.45-2.36-3.55-2.43-3.21-4.9-6.41-7.38-9.59A31,31,0,0,1,.64,30.79a25.92,25.92,0,0,1,4-16.19,25.57,25.57,0,0,1,14-11.37c.84-.28,1.69-.48,2.54-.7.55-.14,1.17-.13,1.2.55,0,.32-.46.82-.82,1-1.52.57-3.14.88-4.6,1.57C9,9.37,4.33,15.84,2.59,24.36c-1.36,6.62.22,12.83,3.7,18.5,1.79,2.89,4.06,5.48,6.08,8.24s4,5.6,6,8.39a1,1,0,0,0,.82.41c1.07-.22,2.12-.55,3.48-.93C21.41,56.9,20.34,54.86,19,53c-2.3-3.07-4.81-6-7.2-9C7.54,38.74,5.14,32.74,6.3,25.92c1.54-9,6.55-15.33,15.56-18.09a2,2,0,0,0,1-.85c1.25-2.31,2.45-4.65,3.66-7ZM24.1,58.59l22.61-6.05c-.8-2.27-1.45-4.48-2.33-6.59A13.74,13.74,0,0,0,37,38.26a39,39,0,0,1-6.76-4,6.6,6.6,0,0,1-3.12-5.95,2.93,2.93,0,0,0-.45-1.36c-.69-1.28-1.44-2.52-2.12-3.8-.28-.51-.12-1.06.45-1.16a1.36,1.36,0,0,1,1,.6c.34.5.46,1.14.76,1.67a8.25,8.25,0,0,0,9.3,4.17,8.28,8.28,0,0,1,6.42,1.14c.22.14.49.21.69.36a3.93,3.93,0,0,0,3.59.4c1.1-.3,1.45-1.21,2.12-1.86a3.48,3.48,0,0,0,.84-4.12,3.78,3.78,0,0,0-1.62-2.14c-3.15-1.9-6.24-3.88-9.35-5.85-.93-.59-1-.93-.3-1.79l.91-1.15a31.45,31.45,0,0,1-2.61-1.89,10.77,10.77,0,0,0-7.12-2.72,1.34,1.34,0,0,1-1.36-1.13c-.45-1.5-.95-3-1.49-4.65-.95,1.8-1.82,3.39-2.63,5a2.31,2.31,0,0,1-1.66,1.32c-7,1.8-11.41,6.45-13.75,13.05C6.11,30,8.11,36.82,13,42.92,16.94,47.92,21.38,52.59,24.1,58.59Zm26.3-.47c-.6.12-1.22.2-1.81.36q-9.42,2.49-18.83,5c-3.38.91-6.78,1.79-10.16,2.72a4.06,4.06,0,0,0-3,5.28c.75,2.21,2.88,3.18,5.5,2.48q10.63-2.84,21.27-5.67c2.76-.73,5.54-1.43,8.27-2.26a3.92,3.92,0,0,0,2.72-4.41A4.13,4.13,0,0,0,50.4,58.12Zm2.13-3.38c0-1.22-1-1.85-2.31-1.49l-28.43,7.6c-1.94.52-3.89,1-5.83,1.57a1.56,1.56,0,0,0-1.28,2,1.59,1.59,0,0,0,2.06,1c.16,0,.32-.08.48-.12L40.66,59l10.26-2.74C51.76,56,52.44,55.63,52.53,54.74ZM20,79.31c.27-.06.66-.13,1-.24l33.23-8.91c1.54-.41,2.13-1,1.9-2s-1.12-1.34-2.64-.93L22.28,75.6c-1,.26-2,.49-2.91.83a1.38,1.38,0,0,0-.95,1.71A1.49,1.49,0,0,0,20,79.31Z" transform="translate(-0.55)"/><path d="M79.3,100,65.77,96.32l-14-3.75c-2.79-.75-4-2.73-3.27-5.54.21-.85.45-1.7.68-2.54.8-3,1.37-3.54,4.26-4.21.26-2.45.88-3.2,2.93-3.56A10.34,10.34,0,0,1,56.62,75a2.76,2.76,0,0,1,2.18-1.87,1.56,1.56,0,0,0,1-.74Q64.88,59.15,70,45.87c.06-.15.1-.3.18-.52-.66-.19-1.28-.39-1.9-.53a3,3,0,0,1-2.6-2.2,2.91,2.91,0,0,1,1.42-3.32c-.33-.48-.66-.91-.92-1.38a6.23,6.23,0,0,1-.47-4.82q1.56-5.89,3.14-11.77c.31-1.17.55-1.31,1.74-1,1.6.43,3.19.9,4.79,1.32.82.21,1.15.6.88,1.48-.34,1.11-.6,2.24-.91,3.46l4.1,1.11c.3-1.17.61-2.29.88-3.42.21-.87.64-1.17,1.55-.9,1.68.5,3.38,1,5.08,1.36.94.22,1.14.71.88,1.56-.31,1.06-.57,2.14-.9,3.35L91,30.78c.33-1.17.62-2.26.92-3.34s.52-1.19,1.61-.9c1.66.45,3.31.94,5,1.35.88.22,1.06.69.84,1.51-1,3.86-2.09,7.71-3.09,11.58A6.44,6.44,0,0,1,92,45.81c.1.44.23.83.28,1.24A2.81,2.81,0,0,1,89,50.26c-1-.14-1.89-.43-3-.67-.29,1.83-.59,3.62-.87,5.4Q83.41,66.6,81.61,78.21a1.25,1.25,0,0,0,.23.92c1.46,1.4,1.63,2.5.59,4.32,1.9,1.85,2.09,2.87.84,4.86,2.12,1.45,2.24,3.45,1.49,5.69a12.17,12.17,0,0,0-.52,1.88A4.84,4.84,0,0,1,80.86,100ZM71.75,45.82,61.1,73.44l18.76,5.07c1.56-9.84,3.1-19.58,4.65-29.34L72.43,45.92A6,6,0,0,0,71.75,45.82ZM70.36,22a4.25,4.25,0,0,0-.21.5c-1,3.67-2,7.34-3,11a4.5,4.5,0,0,0,3.43,5.89l3.39.91c5,1.34,10.1,2.74,15.16,4a4.16,4.16,0,0,0,5.07-2.76c1.22-4,2.26-8.12,3.4-12.28l-4.26-1.11c-.34,1.22-.68,2.33-1,3.46-.19.78-.59,1.08-1.41.84-1.62-.46-3.26-.88-4.9-1.3-.81-.21-1.13-.64-.87-1.5.33-1.11.6-2.25.91-3.46l-4.4-1.17c-.32,1.14-.6,2.17-.88,3.2-.34,1.24-.51,1.35-1.79,1l-4.33-1.16c-1.28-.35-1.39-.55-1-1.87.27-1,.53-2.05.82-3.12ZM82.62,95.34c-.27-.09-.48-.17-.7-.23L60,89.24l-2.07-.56c-.55-.15-.94-.52-.67-1.05.15-.28.71-.36,1.1-.48.13,0,.3.08.46.12L74.62,91.5l8.43,2.26c1.13-2.42.08-4-2.16-4.62-8.71-2.27-17.38-4.69-26.07-7-2.48-.68-3.74.19-4.09,2.86.79.23,1.59.48,2.4.7.57.16,1.14.35.94,1.09s-.83.63-1.38.5c-.81-.18-1.61-.42-2.4-.62-1,2.56-.37,3.85,2.16,4.53l26.17,7C81,98.85,82.29,98,82.62,95.34Zm-1.84-7.82c1,.07,1.44-.26,1.61-1a1.24,1.24,0,0,0-.75-1.52,5,5,0,0,0-.74-.25Q69,81.62,57.08,78.44c-.28-.08-.64-.22-.85-.11-.44.23-1,.56-1.14,1a2.06,2.06,0,0,0,.55,1.39c.18.23.64.28,1,.37l18.73,5C77.23,86.59,79.11,87.08,80.78,87.52Zm-1-4.66c1,0,1.49-.26,1.63-1a1.31,1.31,0,0,0-.92-1.53,5.38,5.38,0,0,0-.65-.2L60.47,75c-1.49-.4-2.22-.18-2.44.74s.37,1.44,1.74,1.81L79,82.67C79.3,82.76,79.65,82.83,79.8,82.86ZM68.22,40.51c-.3.3-.83.62-1,1.08A1.12,1.12,0,0,0,68,43.08a5,5,0,0,0,.75.24l17,4.54c1,.27,2.07.56,3.11.81a1.24,1.24,0,0,0,1.68-.9c.22-.86-.3-1.33-1.06-1.59l-.28-.08-20-5.34Z" transform="translate(-0.55)"/><path d="M35.59,4.63,31.52,3.7c-.56-.13-1.15-.31-1-1.05s.71-.64,1.26-.51l4.65,1a.94.94,0,0,1,.83,1.27,10.6,10.6,0,0,1-.48,2c-.14.33-.63.51-1,.76a4,4,0,0,1-.49-1.11A6,6,0,0,1,35.59,4.63Z" transform="translate(-0.55)"/><path d="M34.68,16.24c.23.19.47.3.54.48s.24.69.11.86-.67.45-.87.36c-1.31-.64-2.58-1.34-3.84-2.08a.91.91,0,0,1-.26-.82,1.13,1.13,0,0,1,.81-.55,36.11,36.11,0,0,1,3.89.12,1.24,1.24,0,0,1,.82.73c0,.18-.4.55-.66.79C35.12,16.22,34.92,16.2,34.68,16.24Z" transform="translate(-0.55)"/><path d="M85.34,41.41l-6.22-1.68a2.32,2.32,0,0,1-.91-.29c-.25-.22-.53-.66-.46-.9a1,1,0,0,1,.84-.55q3.5.85,7,1.87a1,1,0,0,1,.52.85C86,41,85.54,41.23,85.34,41.41Z" transform="translate(-0.55)"/><path d="M75.28,38.71c-1.42-.39-2.68-.69-3.9-1.11-.24-.08-.46-.63-.42-.92a.92.92,0,0,1,.78-.51,36.85,36.85,0,0,1,3.85,1A.91.91,0,0,1,76,38C75.88,38.3,75.5,38.51,75.28,38.71Z" transform="translate(-0.55)"/></svg>