<?xml version="1.0" encoding="utf-8"?>
<!-- Generator: Adobe Illustrator 26.0.2, SVG Export Plug-In . SVG Version: 6.00 Build 0)  -->
<svg version="1.1" id="Слой_1" xmlns="http://www.w3.org/2000/svg" xmlns:xlink="http://www.w3.org/1999/xlink" x="0px" y="0px"
	 viewBox="0 0 100 100" style="enable-background:new 0 0 100 100;" xml:space="preserve">
<g id="Пезанская_Башня">
	<path d="M50,93.4c-7.3,0-14.6,0-22,0c-0.9,0-1.4-0.3-1.9-1.1c-1.5-2.5-2.4-5.1-2.8-8c-0.4-3.4,0.7-6.4,2.4-9.2
		c1.5-2.3,3-4.6,4.6-6.8c0.2-0.3,0.7-0.5,1.1-0.5c12.7,0,25.5,0,38.2,0c0.3,0,0.8,0.2,1,0.4c1.8,3.2,3.8,6.2,5.2,9.6
		c2,4.9,0.7,9.6-1.7,14.1c-0.6,1.1-1.3,1.5-2.6,1.5C64.3,93.3,57.1,93.4,50,93.4z"/>
	<path d="M67.5,60.9c-11.7,0-23.2,0-34.9,0c0-0.3-0.1-0.6-0.1-0.9c1-11,2.1-21.9,3.1-32.9c0.1-1,0.5-1.3,1.5-1.3
		c8.6,0,17.2,0,25.8,0c1,0,1.3,0.3,1.4,1.3c0.9,9.7,1.8,19.3,2.7,29C67.2,57.7,67.3,59.3,67.5,60.9z"/>
	<path d="M54.4,8.6c2.9,0,5.5,0,8.4,0C62.5,5.7,62.3,2.9,62,0c3.9,0,7.6,0,11.6,0c-0.1,1-0.2,2-0.4,3c-0.9,5.7-3.3,10.6-7.5,14.6
		c-0.5,0.5-1.3,0.8-1.9,0.8c-9.3,0.1-18.5,0-27.8,0.1c-1,0-1.7-0.4-2.4-1c-3.7-3.6-5.7-8-6.8-12.9c-0.3-1.5-0.5-2.9-0.8-4.5
		c4,0,7.8,0,11.8,0c-0.2,2.9-0.5,5.7-0.7,8.6c2.8,0,5.5,0,8.4,0C45.2,5.8,45,3,44.7,0c3.5,0,6.9,0,10.4,0
		C54.9,2.9,54.6,5.7,54.4,8.6z"/>
	<path d="M76.3,100c-17.6,0-35,0-52.6,0c0.4-1.3,0.6-2.5,1-3.6c0.6-1.4,1.7-2.1,3.4-2.1c14.5,0.1,29,0.1,43.5,0
		c1.9,0,2.9,0.8,3.6,2.3C75.7,97.6,75.9,98.7,76.3,100z"/>
	<path d="M50.2,66.8c-6.4,0-12.7,0-19.1,0c-1.9,0-2.9-0.8-2.9-2.2c0-1.5,1.2-2.6,3-2.6c4.1,0,8.2,0,12.2,0c8.4,0,16.8,0,25.2,0
		c0.6,0,1.3,0,1.9,0.2c1.2,0.4,1.9,1.6,1.7,2.7c-0.2,1.1-1.2,1.9-2.5,1.9C63.2,66.8,56.7,66.8,50.2,66.8
		C50.2,66.8,50.2,66.8,50.2,66.8z"/>
	<path d="M50,19.5c5,0,10.1,0,15.1,0c0.7,0,1.5,0.2,2.1,0.6c0.8,0.6,1.4,1.5,1,2.6c-0.5,1.2-1.5,1.9-2.8,2.2c-0.2,0-0.5,0-0.7,0
		c-9.7,0-19.4,0.1-29.1,0.1c-0.8,0-1.6-0.3-2.3-0.7c-1-0.6-1.7-1.4-1.3-2.8c0.5-1.3,1.4-2.1,2.8-2.1C39.9,19.5,44.9,19.5,50,19.5z"
		/>
</g>
</svg>
