<?xml version="1.0" encoding="utf-8"?>
<!-- Generator: Adobe Illustrator 26.0.2, SVG Export Plug-In . SVG Version: 6.00 Build 0)  -->
<svg version="1.1" id="Слой_1" xmlns="http://www.w3.org/2000/svg" xmlns:xlink="http://www.w3.org/1999/xlink" x="0px" y="0px"
	 viewBox="0 0 100 100" style="enable-background:new 0 0 100 100;" xml:space="preserve">
<g id="Сосочка">
	<path d="M49.9,48.6c-2.8,0-5.7,0-8.5,0c-1.4,0-2.5-1-2.5-2.2c0-1.5,1.2-2.9,2.5-2.9c1.2,0,1.1,0,1.2-1.2c0.1-2.5,0.2-4.9,0.3-7.4
		c0-0.4-0.1-1-0.4-1.3c-1.8-2.7-3.7-5.5-5.5-8.2c-1.2-1.7-2-3.6-1.3-5.7c0.6-2.1,2.5-3.6,4.7-3.7c0.8,0,1.6,0,2.4,0
		c0.5,0,0.7-0.2,0.7-0.7c0.1-1.9,0.3-2.1,2.2-2.1c2.9,0,5.8,0,8.7,0c1.4,0,1.9,0.5,1.8,1.9c0,0.8,0.3,1,1,0.9c0.9,0,1.9-0.1,2.8,0.1
		c3.1,0.5,5.1,3.7,4,6.7c-0.6,1.7-1.7,3.2-2.6,4.7c-1.4,2.2-2.8,4.3-4.2,6.4c-0.2,0.3-0.3,0.7-0.3,1.1c0.1,2.5,0.3,5,0.4,7.5
		c0,0.8,0.3,0.9,1,0.9c1.3,0,2.3,0.8,2.6,2c0.3,1.2-0.1,2.2-1.2,2.9c-0.3,0.2-0.8,0.3-1.2,0.3C55.7,48.6,52.8,48.6,49.9,48.6
		C49.9,48.6,49.9,48.6,49.9,48.6z"/>
	<path d="M50,96c-4.8,0-9.7,0-14.5,0c-0.8,0-1.2-0.3-1.6-1c-1.6-2.8-1.9-5.8-0.8-8.8c0.6-1.8,1.6-3.4,2.4-5.1c0.2-0.3,0.7-0.6,1-0.6
		c8.9,0,17.8,0,26.6,0c0.3,0,0.7,0.1,0.8,0.3c1.4,2.1,3,4.2,3.4,6.8c0.5,2.7-0.1,5.2-1.4,7.6c-0.3,0.5-0.7,0.7-1.3,0.7
		C59.8,96,54.9,96,50,96z"/>
	<path d="M44.4,49.2c3.7,0,7.4,0,11.2,0c0.3,9.6,2.6,18.7,7.3,27.3c-8.9,0-17.5,0-26.2,0c0.1-0.4,0.3-0.7,0.4-1
		c1.3-2.9,2.7-5.7,3.8-8.6c2-5,2.9-10.3,3.3-15.7C44.3,50.6,44.4,49.9,44.4,49.2z"/>
	<path d="M67.1,100c-11.3,0-22.7,0-34.2,0c0.2-0.7,0.2-1.5,0.5-2.1c0.4-0.9,1-1.3,2-1.3c9.7,0,19.3,0,29,0
		C66.4,96.6,67.4,97.8,67.1,100z"/>
	<path d="M49.7,80c-4.5,0-8.9,0-13.4,0c-1,0-1.7-0.5-1.7-1.3c0-0.8,0.7-1.5,1.6-1.6c0.1,0,0.2,0,0.3,0c8.7,0,17.5,0,26.2,0
		c0.4,0,0.8,0.1,1.1,0.2c0.6,0.3,1,0.9,0.8,1.6c-0.2,0.7-0.7,1-1.5,1C58.7,80,54.2,80,49.7,80z"/>
	<path d="M44.5,3.1C45,3.5,45.4,4,45.9,4.3c0.5,0.3,1,0.6,1.5,0.8c1,0.3,1.7-0.3,1.4-1.3C48.5,3,48,2.3,47.6,1.6
		c-0.2-0.3-0.4-0.5-0.7-0.8c2-1,3.8-1,5.8-0.1c-0.5,0.7-1.1,1.4-1.5,2.1c-0.4,0.7-0.8,1.5-0.2,2.1c0.7,0.7,1.5,0.2,2.1-0.2
		c0.7-0.4,1.3-1,2-1.5C56,4.5,56.1,7.4,55,9c-0.6-0.5-1.2-1-1.8-1.5c-0.7-0.4-1.5-0.9-2.2-0.2c-0.6,0.7-0.2,1.5,0.2,2.1
		c0.4,0.7,1,1.3,1.5,2c-1.4,1.1-4.1,1.2-5.8,0c0.4-0.5,0.8-0.9,1.2-1.4c0.3-0.5,0.6-1,0.8-1.5c0.3-1.1-0.3-1.8-1.4-1.4
		C46.6,7.4,46,8,45.3,8.5c-0.3,0.2-0.5,0.5-0.8,0.8C43.5,7.1,43.5,5.2,44.5,3.1z"/>
</g>
</svg>
