<?xml version="1.0" encoding="utf-8"?>
<!-- Generator: Adobe Illustrator 26.0.2, SVG Export Plug-In . SVG Version: 6.00 Build 0)  -->
<svg version="1.1" id="Слой_1" xmlns="http://www.w3.org/2000/svg" xmlns:xlink="http://www.w3.org/1999/xlink" x="0px" y="0px"
	 viewBox="0 0 100 100" style="enable-background:new 0 0 100 100;" xml:space="preserve">
<g id="Коняра">
	<path d="M58.3,0c2,1.5,2.3,2.6,1.5,4.7c-0.2,0.6-0.2,0.9,0.4,1.3c1.6,1,2.6,2.6,3.4,4.3c2.1,4.7,5.3,8.6,9.5,11.6
		c2.6,1.9,3,3.3,1.6,6.1c-0.7,1.3-1.5,2.6-2.4,3.8c-1.3,1.8-1.4,1.8-3.2,0.4c-1.5-1.2-3.1-2.1-5.1-2.2c-1.6,0-3.1,0.2-4.7,0.3
		c-0.5,0-1,0.2-1.5,0.3c-4,0.9-6.5-0.8-7-4.9c0-0.2,0-0.4,0-0.6c-0.3-0.4-0.6-0.8-0.9-1.2c-0.3,0.4-0.9,0.8-0.9,1.1
		c0.1,2,0.1,4,0.5,5.9C51.4,39,55.8,45.4,61.4,51c0.3,0.3,0.5,0.6,0.8,0.8c1.8,1.1,2.1,2.6,1.7,4.6c-0.6,3.5-1,7.1-1.4,10.7
		c-0.1,0.7-0.4,0.9-1,0.9c-10.1,0-20.2,0-30.3,0c-0.5,0-1.1-0.5-1.4-0.9c-1.8-3-2.7-6.2-3.4-9.6c-2.4-11.5-2.7-23.1,0.1-34.6
		c1.2-4.8,2.9-9.5,6.3-13.2C38.6,3.1,45.9,1,54.3,2.4c0.9,0.1,1.4,0,2-0.6C56.9,1.1,57.7,0.6,58.3,0z"/>
	<path d="M46.1,94.5c-5.9,0-11.8,0-17.7,0c-0.9,0-1.4-0.3-1.8-1c-2.3-4.4-2.9-8.9-0.8-13.6c0.9-2,2-3.8,3.2-5.7
		c0.2-0.4,0.9-0.6,1.4-0.6c7.5,0,14.9,0,22.4,0c3.1,0,6.3,0,9.4,0c0.4,0,1,0.2,1.2,0.5c2.4,3.8,4.2,7.8,4.1,12.5
		c-0.1,2.5-0.7,4.8-2,7c-0.4,0.7-0.9,1-1.7,1C57.9,94.5,52,94.5,46.1,94.5z"/>
	<path d="M66.9,100c-13.9,0-27.8,0-41.9,0c0.2-1.1,0.3-2.1,0.6-2.9c0.5-1.1,1.3-1.7,2.7-1.7c11.5,0.1,23,0,34.5,0
		C65.9,95.4,67.1,96.7,66.9,100z"/>
	<path d="M46.5,72.8c-5.3,0-10.6,0-16,0c-1.5,0-2.3-0.6-2.4-1.7c0-1.2,1.1-2.2,2.4-2.2c5.9,0,11.9,0,17.8,0c4.6,0,9.1,0,13.7,0
		c1.1,0,1.9,0.3,2.4,1.3c0.7,1.3-0.4,2.7-1.8,2.7C57.3,72.7,51.9,72.8,46.5,72.8z"/>
</g>
</svg>
