<svg id="Слой_1" data-name="Слой 1" xmlns="http://www.w3.org/2000/svg" viewBox="0 0 54.76 100"><g id="Пешка"><path d="M33.39,83.29a9.34,9.34,0,0,1,.55-1c2.94-4.12,4.17-8.85,4.89-13.75,1.4-9.57,1.56-19.21,1.63-28.86V38.18H59.53c0,1.07,0,2.11,0,3.14a211.17,211.17,0,0,0,1.38,25.51c.71,5.48,1.83,10.84,5.15,15.46a8.42,8.42,0,0,1,.5,1Z" transform="translate(-22.62 0)"/><path d="M65.46,15.47A15.48,15.48,0,1,1,49.8,0,15.45,15.45,0,0,1,65.46,15.47Z" transform="translate(-22.62 0)"/><path d="M50,100c-7.55,0-15.11,0-22.66,0a4.73,4.73,0,0,1-2.09-9,5.73,5.73,0,0,1,2.34-.54q22.43,0,44.85,0a4.76,4.76,0,1,1,0,9.51C64.93,100,57.45,100,50,100Z" transform="translate(-22.62 0)"/><path d="M50,89.3H31.28a2.46,2.46,0,0,1-2.62-1.69,2.32,2.32,0,0,1,2.15-3c1.27-.07,2.55,0,3.83,0H68.69c1.7,0,2.72.92,2.71,2.35s-1,2.38-2.7,2.38H50Z" transform="translate(-22.62 0)"/><path d="M49.92,36.94c-4.22,0-8.44,0-12.67,0a2.43,2.43,0,0,1-2.7-2.15c-.19-1.53,1-2.65,2.77-2.65q7.44,0,14.88,0H62.43c1.92,0,3.05.92,3,2.44s-1.13,2.37-3.09,2.37Z" transform="translate(-22.62 0)"/></g></svg>