<?xml version="1.0" encoding="utf-8"?>
<!-- Generator: Adobe Illustrator 26.0.2, SVG Export Plug-In . SVG Version: 6.00 Build 0)  -->
<svg version="1.1" id="Слой_1" xmlns="http://www.w3.org/2000/svg" xmlns:xlink="http://www.w3.org/1999/xlink" x="0px" y="0px"
	 viewBox="0 0 100 100" style="enable-background:new 0 0 100 100;" xml:space="preserve">
<g id="Мамонт">
	<path d="M64.6,83.7c-9.7,0-19.4,0-29.2,0c0.3-1.4,0.6-2.8,0.9-4.2c0.6-3.2,1.3-6.5,1.7-9.7c0.4-3.1,0.7-6.1,0.9-9.2
		c0.2-3.3,0.3-6.7,0.4-10c0.1-2.7,0.1-5.4,0.2-8.1c0-0.2,0-0.3,0-0.5c7,0,13.9,0,21,0c0,0.8,0.1,1.5,0.1,2.3
		c0.2,5.2,0.3,10.3,0.5,15.5c0.2,5.1,0.7,10.2,1.6,15.3c0.5,2.6,1.1,5.2,1.7,7.8C64.5,83.1,64.5,83.4,64.6,83.7z"/>
	<path d="M42.2,10.3c1.5,3,3,5.9,4.4,8.9c0.7-0.3,1.4-0.7,2.1-1c-0.7-1.4-1.4-2.8-2.1-4.2c-0.9-1.7-1.7-3.5-2.6-5.2
		c-0.2-0.3-0.1-0.6,0.1-0.8c1.9-2.4,3.8-4.8,5.2-7.5c0.2-0.4,1.2-0.5,1.4-0.1c2.2,4.4,5.7,8,8.7,11.9c1.5,1.9,2.8,3.9,4.2,5.9
		c1.6,2.2,1.8,4.7,1.1,7.3c-0.8,3.3-2.3,6.3-4,9.3c-0.2,0.4-0.6,0.4-0.9,0.4c-5.6,0-11.2,0-16.9,0c-1,0-2,0-3,0
		c-0.2,0-0.5-0.1-0.6-0.3c-2-3.3-3.6-6.7-4.3-10.5c-0.4-2.1,0-4,1.2-5.7c1.7-2.4,3.4-4.8,5.2-7.1C41.6,10.9,41.9,10.6,42.2,10.3z"/>
	<path d="M50,90.7c7.3,0,14.6,0,22,0c2.7,0,4.8,2.1,4.8,4.7c0,2.6-2.1,4.7-4.8,4.7c-14.6,0-29.2,0-43.9,0c-2.4,0-4.3-1.6-4.7-3.8
		c-0.4-2.3,0.9-4.5,3.1-5.2c0.6-0.2,1.2-0.2,1.9-0.2C35.6,90.7,42.8,90.7,50,90.7C50,90.7,50,90.7,50,90.7z"/>
	<path d="M50,89.5c-6.1,0-12.2,0-18.4,0c-1,0-1.7-0.3-2.2-1.2c-0.9-1.6,0.2-3.5,2.1-3.5c3.5,0,6.9,0,10.4,0c8.8,0,17.6,0,26.4,0
		c0.4,0,0.8,0,1.2,0.2c1,0.4,1.6,1.5,1.4,2.5c-0.2,1.2-1.1,2-2.3,2c-2,0-3.9,0-5.9,0C58.5,89.5,54.2,89.5,50,89.5z"/>
	<path d="M50,40.7c-4.2,0-8.4,0-12.6,0c-1.7,0-2.7-1.2-2.4-2.8c0.2-0.9,1-1.6,1.8-1.7c0.3,0,0.5-0.1,0.8-0.1c8.2,0,16.5,0,24.7,0
		c0.9,0,1.7,0.2,2.3,0.9c1,1.4,0.2,3.4-1.5,3.7c-0.2,0-0.5,0-0.8,0C58.2,40.7,54.1,40.7,50,40.7z"/>
</g>
</svg>
