<?xml version="1.0" encoding="utf-8"?>
<!-- Generator: Adobe Illustrator 26.0.2, SVG Export Plug-In . SVG Version: 6.00 Build 0)  -->
<svg version="1.1" id="Слой_1" xmlns="http://www.w3.org/2000/svg" xmlns:xlink="http://www.w3.org/1999/xlink" x="0px" y="0px"
	 viewBox="0 0 100 100" style="enable-background:new 0 0 100 100;" xml:space="preserve">
<g id="Лев">
	<path d="M45.3,13.3c1,0.5,1.9,1.1,2.9,1.4c1.8,0.7,3.4,0.1,4.9-0.9c0.7-0.5,1.1-0.5,1.9-0.1c2,1.3,4.1,1.5,6.3,0.2
		c1.7-1,3.4-0.6,4.4,0.9c1,1.4,0.7,3.2-0.9,4.3c-1.6,1.2-2.9,2.6-3.9,4.3c-2.8,4.6-4.2,9.6-4.1,15c0,0.6,0.2,0.9,0.9,0.8
		c0.7,0,1.5,0,2.2,0c1.4,0,2.5,0.9,2.9,2.2c0.4,1.3,0.1,2.5-1.2,3.3c-0.3,0.2-0.8,0.4-1.2,0.4c-7,0-14,0-21,0c-1,0-2-0.8-2.3-1.8
		c-0.6-1.9,1-4.1,3-4.1c0.6,0,1.1,0,1.7,0c0.7,0.1,0.9-0.2,0.9-0.9c0-6.3-1.6-12-5.6-17c-0.7-0.9-1.7-1.6-2.5-2.3
		c-1-0.9-1.6-1.9-1.2-3.3c0.4-1.3,1.3-2.3,2.7-2.4c0.5,0,1.2,0,1.6,0.3C40.2,15.3,42.1,15.3,45.3,13.3z"/>
	<path d="M50,95.8c-5.4,0-10.9,0-16.3,0c-0.8,0-1.2-0.3-1.6-0.9c-1.9-3.1-2.1-6.3-0.9-9.6c0.6-1.8,1.7-3.5,2.6-5.2
		c0.2-0.3,0.7-0.6,1-0.6c10.1,0,20.2,0,30.3,0c0.2,0,0.6,0.1,0.7,0.3c1.5,2.3,3.2,4.5,3.7,7.3c0.5,2.9-0.1,5.6-1.6,8.1
		c-0.3,0.5-0.6,0.6-1.2,0.6C61.1,95.8,55.5,95.8,50,95.8z"/>
	<path d="M64,75c-9.6,0-19.2,0-28.9,0c0.2-0.5,0.4-0.8,0.6-1.2c4.2-7.2,6.6-15,7.4-23.4c0.1-1.3,0.3-2.6,0.3-3.9
		c0-0.5,0.2-0.7,0.7-0.7c3.6,0,7.3,0,10.9,0c0.8,0,0.7,0.5,0.7,1c0.4,4.9,1,9.8,2.4,14.6c1.2,4.4,3.2,8.4,5.3,12.4
		c0.2,0.3,0.3,0.6,0.5,0.9C64,74.8,64,74.8,64,75z"/>
	<path d="M30.8,100c0.2-0.9,0.3-1.7,0.6-2.4c0.4-0.8,1-1.2,2.1-1.2c11,0,21.9,0,32.9,0c1.7,0,2.5,0.7,2.7,2.3
		c0.1,0.4,0.1,0.8,0.1,1.2C56.4,100,43.7,100,30.8,100z"/>
	<path d="M49.5,0c3.5,0,6.2,2.8,6.2,6.3c0,3.4-2.8,6.2-6.3,6.2c-3.4,0-6.2-2.8-6.2-6.3C43.2,2.8,46,0,49.5,0z"/>
	<path d="M49.6,78.8c-4.9,0-9.9,0-14.8,0c-1.3,0-1.9-0.4-1.9-1.3c0-1,0.8-1.7,2-1.7c6.1,0,12.2,0,18.3,0c3.7,0,7.5,0,11.2,0
		c0.8,0,1.4,0.2,1.9,0.8c0.6,1,0.1,2.1-1,2.2c-0.6,0-1.2,0-1.8,0C58.9,78.8,54.2,78.8,49.6,78.8z"/>
</g>
</svg>
